<svg width="20" height="20" viewBox="0 0 0.469 0.469" xmlns="http://www.w3.org/2000/svg">
    <path
        fill="currentColor"
        d="M.432.214.394.178.36.109A.033.033 0 0 0 .332.093H.138A.033.033 0 0 0 .11.109L.075.178.036.214a.016.016 0 0 0-.005.011v.134a.016.016 0 0 0 .016.016H.11C.116.375.126.369.126.362V.344h.219V.36c0 .006.006.016.013.016h.066A.016.016 0 0 0 .44.36V.226A.016.016 0 0 0 .435.215ZM.141.125h.188L.36.188H.11Zm.015.144C.156.275.147.282.14.282H.075C.069.282.062.273.062.266V.231C.065.222.071.215.081.218l.063.013C.15.231.157.24.157.247Zm.25-.003C.406.272.4.282.393.282H.327C.321.282.311.276.311.269V.247c0-.006.006-.016.013-.016L.387.218C.396.215.403.221.406.231Z" />
</svg>